<svg width="35" height="35" viewBox="0 0 35 35" fill="none" xmlns="http://www.w3.org/2000/svg">
<path d="M16.0417 33.4688V30.5521C13.0035 30.2118 10.3969 28.9542 8.22208 26.7794C6.04625 24.6035 4.78819 21.9965 4.44792 18.9583H1.53125V16.0417H4.44792C4.78819 13.0035 6.04625 10.3965 8.22208 8.22062C10.3969 6.04576 13.0035 4.78819 16.0417 4.44792V1.53125H18.9583V4.44792C21.9965 4.78819 24.6035 6.04576 26.7794 8.22062C28.9542 10.3965 30.2118 13.0035 30.5521 16.0417H33.4688V18.9583H30.5521C30.2118 21.9965 28.9542 24.6035 26.7794 26.7794C24.6035 28.9542 21.9965 30.2118 18.9583 30.5521V33.4688H16.0417ZM17.5 27.7083C20.3194 27.7083 22.7257 26.7118 24.7188 24.7188C26.7118 22.7257 27.7083 20.3194 27.7083 17.5C27.7083 14.6806 26.7118 12.2743 24.7188 10.2812C22.7257 8.28819 20.3194 7.29167 17.5 7.29167C14.6806 7.29167 12.2743 8.28819 10.2812 10.2812C8.28819 12.2743 7.29167 14.6806 7.29167 17.5C7.29167 20.3194 8.28819 22.7257 10.2812 24.7188C12.2743 26.7118 14.6806 27.7083 17.5 27.7083ZM17.5 23.3333C15.8958 23.3333 14.5226 22.7622 13.3802 21.6198C12.2378 20.4774 11.6667 19.1042 11.6667 17.5C11.6667 15.8958 12.2378 14.5226 13.3802 13.3802C14.5226 12.2378 15.8958 11.6667 17.5 11.6667C19.1042 11.6667 20.4774 12.2378 21.6198 13.3802C22.7622 14.5226 23.3333 15.8958 23.3333 17.5C23.3333 19.1042 22.7622 20.4774 21.6198 21.6198C20.4774 22.7622 19.1042 23.3333 17.5 23.3333Z" fill="white"/>
</svg>
